<svg width="25" height="37" viewBox="0 0 25 37" fill="none" xmlns="http://www.w3.org/2000/svg">
<path fill-rule="evenodd" clip-rule="evenodd" d="M21.3644 15.2958C19.403 13.2867 17.4741 11.3087 15.5463 9.33189L15.5425 9.32796C13.0086 6.72796 10.4746 4.12792 7.86107 1.4532L6.7922 0.358398L5.72577 1.45761C5.16186 2.03889 4.59148 2.62091 4.02095 3.20308C3.87825 3.34869 3.73554 3.49431 3.59292 3.63993L3.59179 3.64108C2.87486 4.37311 2.15904 5.104 1.45108 5.83375L0.355469 6.96285L1.49169 8.05076C2.30568 8.83162 3.27238 9.91147 4.26948 12.0021C5.19472 13.9409 5.69337 16.112 5.71601 18.2991L5.71602 18.421C5.69263 20.6069 5.19549 22.7768 4.27059 24.7154C3.27385 26.8058 2.30734 27.8855 1.49348 28.6662L0.357445 29.7539L1.45325 30.8832C2.01959 31.467 2.59167 32.0508 3.16491 32.6357C3.30875 32.7825 3.45267 32.9293 3.59659 33.0763C4.30954 33.8042 5.02361 34.5333 5.72871 35.2601L6.7942 36.3584L7.86288 35.2638C10.4982 32.5691 13.0505 29.9502 15.604 27.3302L15.6085 27.3256C16.0819 26.8401 16.5553 26.3546 17.0292 25.8684C18.4646 24.396 19.905 22.9185 21.365 21.4248C21.4604 21.3271 21.5556 21.2293 21.6507 21.1316C21.8411 20.9361 22.0314 20.7407 22.2237 20.5452L24.3555 18.3617L21.3644 15.2958ZM6.79944 31.9853C9.05914 29.6708 11.2661 27.408 13.473 25.1429C15.6609 22.8973 17.851 20.654 20.0905 18.3602C18.389 16.6192 16.7187 14.9061 15.0551 13.2C14.5067 12.6376 13.959 12.0759 13.4112 11.5142C11.2241 9.2694 9.03585 7.02574 6.79707 4.73263C6.4401 5.09827 6.08088 5.4639 5.72279 5.82839C5.54135 6.01422 5.35964 6.19977 5.17806 6.38518C4.99677 6.57029 4.81562 6.75527 4.63503 6.94024C5.36932 7.80504 6.18222 8.97341 6.97945 10.6454C8.07312 12.9384 8.67509 15.4959 8.73032 18.0728L8.73256 18.0751C8.7337 18.1706 8.73371 18.2649 8.73259 18.3603C8.73372 18.4534 8.73261 18.5489 8.73149 18.642L8.72925 18.6443C8.67558 21.2224 8.07518 23.7786 6.98079 26.0725C6.18385 27.7444 5.37115 28.9127 4.63701 29.7773C4.81848 29.962 4.99994 30.1473 5.18155 30.3328C5.36287 30.5179 5.54434 30.7032 5.72608 30.8882C5.9046 31.0711 6.08368 31.2539 6.26276 31.4368C6.44184 31.6196 6.62092 31.8025 6.79944 31.9853Z" fill="#332B2B"/>
<path d="M15.5463 9.33189C17.4741 11.3087 19.403 13.2867 21.3644 15.2958L24.3555 18.3617L22.2237 20.5452C22.0314 20.7407 21.8411 20.9361 21.6507 21.1316C21.5556 21.2293 21.4604 21.3271 21.365 21.4248C19.905 22.9185 18.4646 24.396 17.0292 25.8684C16.5553 26.3546 16.0819 26.8401 15.6085 27.3256M15.5463 9.33189L15.5425 9.32796M15.5463 9.33189C15.545 9.33058 15.5438 9.32926 15.5425 9.32796M15.6085 27.3256L15.604 27.3302M15.6085 27.3256C15.607 27.3271 15.6055 27.3287 15.604 27.3302M15.604 27.3302C13.0505 29.9502 10.4982 32.5691 7.86288 35.2638L6.7942 36.3584L5.72871 35.2601C5.02361 34.5333 4.30954 33.8042 3.59659 33.0763C3.45267 32.9293 3.30875 32.7825 3.16491 32.6357C2.59167 32.0507 2.01959 31.467 1.45325 30.8832L0.357445 29.7539L1.49348 28.6662C2.30734 27.8855 3.27385 26.8058 4.27058 24.7154C5.19549 22.7768 5.69263 20.6069 5.71602 18.421L5.71601 18.2991C5.69337 16.112 5.19472 13.9409 4.26948 12.0021C3.27238 9.91147 2.30568 8.83162 1.49169 8.05076L0.355469 6.96285L1.45108 5.83375C2.15904 5.104 2.87486 4.37311 3.59179 3.64108L3.59292 3.63993C3.73554 3.49431 3.87825 3.34869 4.02095 3.20308C4.59147 2.62091 5.16186 2.03889 5.72577 1.45761L6.7922 0.358398L7.86107 1.4532C10.4746 4.12792 13.0086 6.72796 15.5425 9.32796M13.473 25.1429C11.2661 27.408 9.05914 29.6708 6.79944 31.9853C6.62092 31.8025 6.44184 31.6196 6.26276 31.4368C6.08368 31.2539 5.9046 31.0711 5.72608 30.8882C5.54434 30.7032 5.36287 30.5179 5.18155 30.3328C4.99994 30.1473 4.81848 29.962 4.63701 29.7773C5.37115 28.9127 6.18385 27.7444 6.98079 26.0725C8.07518 23.7786 8.67558 21.2224 8.72925 18.6443L8.73149 18.642C8.73261 18.5489 8.73372 18.4534 8.73259 18.3603C8.73371 18.2649 8.7337 18.1706 8.73257 18.0751L8.73032 18.0728C8.67509 15.4959 8.07312 12.9384 6.97945 10.6454C6.18222 8.97341 5.36932 7.80504 4.63503 6.94024C4.81562 6.75527 4.99677 6.57029 5.17806 6.38518C5.35964 6.19977 5.54135 6.01422 5.72279 5.82839C6.08088 5.4639 6.4401 5.09827 6.79707 4.73263C9.03585 7.02574 11.2241 9.2694 13.4112 11.5142C13.959 12.0759 14.5067 12.6376 15.0551 13.2C16.7187 14.9061 18.389 16.6192 20.0905 18.3602C17.851 20.654 15.6609 22.8973 13.473 25.1429Z" stroke="#332B2B" stroke-width="0.5"/>
</svg>
