<svg width="48" height="48" viewBox="0 0 48 48" fill="none" xmlns="http://www.w3.org/2000/svg">
<path d="M33.3877 46.0779C33.3877 29.4637 19.3343 15.9931 1.99512 15.9929H0V47.9929L33.3877 47.989V46.0779Z" fill="#F2EFE5"/>
<path d="M2.91895 0.250732C10.0534 0.247666 16.98 0.254372 23.9063 0.260498H23.917C29.185 0.263565 34.4565 0.266357 39.8135 0.266357H42.1562L47.7354 0.269287V5.84058C47.7333 6.36447 47.7337 6.88571 47.7344 7.40601C47.7347 7.66612 47.7354 7.92604 47.7354 8.18628C47.733 12.1716 47.7354 16.1088 47.7383 20.032C47.7392 21.327 47.7405 22.6205 47.7412 23.9138V23.9265C47.7443 27.4165 47.7475 30.906 47.749 34.4216L47.7471 45.074V47.7419L45.0791 47.7341C43.1466 47.728 41.1988 47.7311 39.2549 47.7341C38.8625 47.7347 38.4702 47.7353 38.0781 47.7361C36.5154 47.739 34.9562 47.742 33.4053 47.7371L30.6602 47.7283L30.7539 44.9841C30.8252 42.8069 30.7028 40.0168 29.2656 35.8357C27.9318 31.9525 25.6978 28.349 22.79 25.3767L22.625 25.2117L22.624 25.2097C19.6511 22.2992 16.0431 20.0658 12.1592 18.7322C7.9773 17.2953 5.18635 17.1735 3.00879 17.2449L0.264648 17.3376L0.255859 14.5935L0.255859 8.74487C0.256473 8.35606 0.257076 7.96685 0.257813 7.57788C0.260756 6.02287 0.263697 4.4673 0.258789 2.92163L0.25 0.250732H2.91895ZM5.58789 5.57593V5.82593C5.58789 6.8003 5.5851 7.7778 5.58203 8.75269V8.75366C5.58203 9.24895 5.58182 9.74483 5.58105 10.24C5.58029 10.7342 5.5791 11.2282 5.5791 11.7214L5.5791 11.9548L5.81152 11.9705C7.94559 12.1192 10.5919 12.5628 13.8887 13.696C18.4045 15.2477 22.6057 17.8157 26.0908 21.1511L26.1631 21.2214H26.166L26.4746 21.53C26.5741 21.6271 26.6739 21.729 26.7734 21.8308V21.8347L26.8428 21.907C30.1818 25.3915 32.7508 29.5883 34.3027 34.1062C35.4362 37.4025 35.8796 40.0486 36.0283 42.1824L36.0449 42.4158L36.2783 42.4148L39.2471 42.4089C39.7345 42.4089 40.223 42.4077 40.7109 42.407C41.1992 42.4062 41.6876 42.406 42.1748 42.406H42.4248V42.156C42.4248 35.9845 42.4212 29.9533 42.415 23.9197C42.4089 17.9387 42.4092 11.9576 42.4092 5.84155V5.59155H42.1592C37.5148 5.59386 32.9496 5.59052 28.4033 5.58765C26.9048 5.5867 25.4079 5.58548 23.9111 5.58472C17.9318 5.57859 11.9521 5.57593 5.83789 5.57593H5.58789Z" fill="#F2EFE5" stroke="#332B2B" stroke-width="0.5"/>
</svg>
