<svg width="49" height="49" viewBox="0 0 49 49" fill="none" xmlns="http://www.w3.org/2000/svg">
<path d="M2.16504 33.6384C18.7792 33.6384 32.2498 19.585 32.25 2.24585V0.250732H0.25L0.253906 33.6384H2.16504Z" fill="#332B2B"/>
<path fill-rule="evenodd" clip-rule="evenodd" d="M48.2267 42.4068V40.0641C48.2267 34.7072 48.2297 29.4362 48.2328 24.1682L48.2328 24.1577C48.2389 17.2313 48.2451 10.3047 48.242 3.16989V0.250732L45.3203 0.259931C43.7753 0.264837 42.2205 0.261894 40.6652 0.258951C40.2762 0.258215 39.8872 0.257479 39.4983 0.256865L39.4953 0.25686C37.5403 0.253796 35.5884 0.250736 33.6488 0.256865L30.6474 0.266064L30.7486 3.26801C30.8191 5.42059 30.6995 8.18029 29.2739 12.3291C27.9525 16.1773 25.739 19.7527 22.8541 22.6994L22.6916 22.8619C19.7454 25.7443 16.1738 27.9582 12.3262 29.2798C8.17815 30.7056 5.41893 30.8252 3.26674 30.7547L0.265329 30.6535L0.256132 33.6555C0.25123 35.2071 0.254165 36.7666 0.257106 38.3292C0.257844 38.7213 0.258582 39.1136 0.259197 39.506C0.262263 41.4501 0.265329 43.3972 0.259197 45.329L0.25 48.2482H3.16864C10.3598 48.2543 17.3366 48.2482 24.3163 48.2421L24.3288 48.2421C25.6224 48.2413 26.9161 48.2403 28.2113 48.2394C32.1346 48.2365 36.0712 48.2336 40.0563 48.2359C40.3169 48.2359 40.5772 48.2356 40.8374 48.2352C41.3579 48.2346 41.8784 48.2339 42.4016 48.2359H48.2236L48.2267 42.4068ZM6.08728 42.4252C12.2587 42.4252 18.2892 42.4221 24.3226 42.416C30.304 42.4099 36.2854 42.4099 42.4016 42.4099C42.3993 37.7653 42.4022 33.2006 42.4051 28.6543C42.4061 27.1556 42.407 25.6589 42.4078 24.1621C42.4139 18.1827 42.417 12.2033 42.417 6.08905C41.4421 6.08905 40.4641 6.08598 39.4891 6.08292C38.9936 6.08292 38.4981 6.08215 38.003 6.08138C37.5086 6.08061 37.0147 6.07985 36.5215 6.07985C36.3712 8.23549 35.9236 10.9032 34.7831 14.221C33.2196 18.7714 30.6321 23.003 27.2719 26.514V26.5201C27.1462 26.6489 27.0205 26.7746 26.8918 26.9003C26.7691 27.026 26.6404 27.1518 26.5147 27.2744H26.5086C22.9982 30.6382 18.7705 33.2262 14.2178 34.79C10.9006 35.9307 8.23334 36.3784 6.07808 36.5286C6.07961 37.0227 6.08038 37.5175 6.08115 38.0127C6.08192 38.5072 6.08268 39.002 6.08421 39.4968C6.08421 39.9844 6.08498 40.4727 6.08575 40.961C6.08651 41.4493 6.08728 41.9377 6.08728 42.4252Z" fill="#332B2B"/>
<path d="M48.2328 24.1682C48.2297 29.4362 48.2267 34.7072 48.2267 40.0641V42.4068L48.2236 48.2359H42.4017C41.8784 48.2339 41.3579 48.2346 40.8374 48.2352C40.5772 48.2356 40.3169 48.2359 40.0563 48.2359C36.0712 48.2336 32.1346 48.2365 28.2113 48.2394C26.9161 48.2403 25.6224 48.2413 24.3288 48.2421M48.2328 24.1682L48.2328 24.1577M48.2328 24.1682C48.2328 24.1647 48.2328 24.1612 48.2328 24.1577M24.3288 48.2421L24.3163 48.2421M24.3288 48.2421C24.3246 48.2421 24.3205 48.2421 24.3163 48.2421M24.3163 48.2421C17.3366 48.2482 10.3598 48.2543 3.16864 48.2482H0.25L0.259197 45.329C0.265329 43.3972 0.262263 41.4501 0.259197 39.506C0.258582 39.1136 0.257844 38.7213 0.257106 38.3292C0.254165 36.7666 0.25123 35.2071 0.256132 33.6555L0.265329 30.6535L3.26674 30.7547C5.41893 30.8252 8.17815 30.7056 12.3262 29.2798C16.1738 27.9582 19.7454 25.7443 22.6916 22.8619L22.8541 22.6994C25.739 19.7527 27.9525 16.1773 29.2739 12.3291C30.6995 8.18029 30.8191 5.42059 30.7486 3.26801L30.6474 0.266064L33.6488 0.256865C35.5884 0.250736 37.5403 0.253796 39.4953 0.25686L39.4983 0.256865C39.8872 0.257479 40.2762 0.258215 40.6652 0.258951C42.2205 0.261894 43.7753 0.264837 45.3203 0.259931L48.242 0.250732V3.16989C48.2451 10.3047 48.2389 17.2313 48.2328 24.1577M24.3226 42.416C18.2892 42.4221 12.2587 42.4252 6.08728 42.4252C6.08728 41.9377 6.08651 41.4493 6.08575 40.961C6.08498 40.4727 6.08421 39.9844 6.08421 39.4968C6.08268 39.002 6.08192 38.5072 6.08115 38.0127C6.08038 37.5175 6.07961 37.0227 6.07808 36.5286C8.23334 36.3784 10.9006 35.9307 14.2178 34.79C18.7705 33.2262 22.9982 30.6382 26.5086 27.2744H26.5147C26.6404 27.1518 26.7692 27.026 26.8918 26.9003C27.0205 26.7746 27.1462 26.6489 27.2719 26.5201V26.514C30.6321 23.003 33.2196 18.7714 34.7831 14.221C35.9236 10.9032 36.3712 8.23549 36.5215 6.07985C37.0147 6.07985 37.5086 6.08061 38.003 6.08138C38.4981 6.08215 38.9936 6.08292 39.4891 6.08292C40.4641 6.08598 41.4421 6.08905 42.417 6.08905C42.417 12.2033 42.4139 18.1827 42.4078 24.1621C42.407 25.6589 42.4061 27.1556 42.4051 28.6543C42.4022 33.2006 42.3993 37.7653 42.4017 42.4099C36.2854 42.4099 30.304 42.4099 24.3226 42.416Z" stroke="#F2EFE5" stroke-width="0.5"/>
</svg>
