<svg width="36" height="36" viewBox="0 0 36 36" fill="none" xmlns="http://www.w3.org/2000/svg">
<path d="M25.0408 34.5581C25.0408 22.0975 14.5007 11.9945 1.49634 11.9944H0V35.9944L25.0408 35.9915V34.5581Z" fill="#332B2B"/>
<path d="M2.18945 0.250488L17.9297 0.257324H17.9375C21.8885 0.259624 25.8426 0.262207 29.8604 0.262207H31.6172L35.7393 0.26416V4.38037C35.7377 4.77334 35.7378 5.16415 35.7383 5.5542C35.7385 5.74942 35.7393 5.94488 35.7393 6.14014C35.7375 9.12903 35.739 12.0816 35.7412 15.0239C35.7419 15.9953 35.7426 16.9659 35.7432 17.936V17.9448C35.7478 23.1796 35.7526 28.4122 35.748 33.8052V35.7437L33.8096 35.7378C32.3601 35.7332 30.8992 35.7355 29.4414 35.7378C29.1471 35.7383 28.8526 35.7392 28.5586 35.7397C27.3866 35.742 26.2176 35.7434 25.0547 35.7397L23.0596 35.7339L23.1279 33.7407C23.1816 32.1015 23.0887 30.0004 22.0078 26.856C21.0043 23.9347 19.3239 21.2244 17.1367 18.9888L17.1348 18.9868L17.0137 18.8647L17.0117 18.8628C14.7755 16.6735 12.0615 14.994 9.13965 13.9907C5.99487 12.9101 3.89434 12.8169 2.25488 12.8706L0.260742 12.939L0.254883 10.9448L0.254883 6.55908C0.255343 6.2676 0.255307 5.97569 0.255859 5.68408C0.258067 4.51778 0.260518 3.35042 0.256836 2.19092L0.25 0.250488H2.18945ZM4.12891 4.11963V4.36963C4.12891 5.10029 4.12632 5.83376 4.12402 6.56494L4.12305 7.6792C4.12247 8.04994 4.12207 8.42137 4.12207 8.7915V9.02393L4.35449 9.04053C5.94971 9.1517 7.92906 9.48337 10.3965 10.3315C13.7746 11.4923 16.9171 13.4134 19.5244 15.9087L19.5967 15.978H19.5986L19.8125 16.1919C19.8808 16.2585 19.9489 16.3288 20.0176 16.3989V16.4009L20.0869 16.4741C22.585 19.0811 24.507 22.2203 25.668 25.6001C26.5163 28.0671 26.8478 30.0462 26.959 31.6411L26.9756 31.8745L27.209 31.8735C27.5793 31.8724 27.9508 31.8722 28.3223 31.8716L29.4355 31.8687L31.6309 31.8667H31.8809V31.6167C31.8809 26.988 31.8786 22.4651 31.874 17.9399C31.8694 13.4542 31.8691 8.96841 31.8691 4.38135V4.13037L31.6191 4.13135C28.1359 4.13308 24.7124 4.13058 21.3027 4.12842C20.1788 4.12771 19.0562 4.12704 17.9336 4.12646C13.4491 4.12187 8.96459 4.11963 4.37891 4.11963H4.12891Z" fill="#332B2B" stroke="#F2EFE5" stroke-width="0.5"/>
</svg>
