<svg width="1090" height="314" viewBox="0 0 1090 314" fill="none" xmlns="http://www.w3.org/2000/svg">
<mask id="path-1-outside-1_2568_19745" maskUnits="userSpaceOnUse" x="0" y="-0.00088501" width="1090" height="314" fill="black">
<rect fill="white" y="-0.00088501" width="1090" height="314"/>
<path d="M546.897 0.999115C595.232 0.999115 627.979 37.5189 629.696 77.5929C631.413 117.667 594.817 139.812 584.697 144.564C594.762 147.621 609.402 153.09 622.277 163.497C622.369 163.571 622.46 163.646 622.552 163.721C622.863 163.975 623.174 164.231 623.483 164.491C623.578 164.571 623.672 164.651 623.767 164.731C624.35 165.225 624.929 165.73 625.503 166.246C625.565 166.302 625.627 166.357 625.688 166.413C626.021 166.714 626.352 167.02 626.682 167.328C626.765 167.406 626.849 167.484 626.932 167.563C627.087 167.709 627.242 167.857 627.396 168.005C627.637 168.236 627.877 168.468 628.115 168.703C628.238 168.824 628.36 168.946 628.482 169.068C628.642 169.228 628.8 169.389 628.959 169.55C629.156 169.751 629.353 169.953 629.549 170.156C629.719 170.333 629.889 170.511 630.058 170.69C630.172 170.811 630.286 170.933 630.399 171.055C630.649 171.323 630.897 171.592 631.144 171.865C631.233 171.965 631.322 172.065 631.411 172.165C631.589 172.365 631.767 172.566 631.943 172.769C632.048 172.889 632.154 173.009 632.259 173.13C632.506 173.417 632.751 173.706 632.995 173.998C633.066 174.083 633.136 174.168 633.206 174.253C633.427 174.52 633.646 174.79 633.864 175.062C636.159 177.919 638.293 181.02 640.207 184.391C640.232 184.434 640.257 184.478 640.281 184.522C640.732 185.319 641.169 186.131 641.595 186.958C641.62 187.007 641.645 187.056 641.67 187.106C641.782 187.325 641.893 187.546 642.004 187.768C642.039 187.838 642.075 187.908 642.109 187.979C642.519 188.809 642.916 189.655 643.3 190.516C643.318 190.557 643.336 190.598 643.354 190.64C643.464 190.887 643.573 191.135 643.68 191.384C643.709 191.451 643.738 191.519 643.767 191.586C643.964 192.05 644.158 192.519 644.348 192.992C644.278 192.818 644.208 192.645 644.137 192.472C644.249 192.746 644.362 193.022 644.472 193.3V193.299C644.699 193.873 644.919 194.454 645.134 195.041C645.138 195.053 645.142 195.064 645.146 195.075C645.187 195.187 645.228 195.298 645.269 195.41L645.276 195.432C645.356 195.653 645.435 195.874 645.513 196.097C648.377 204.291 650.057 213.731 650.057 224.613C650.057 286.509 603.891 312.721 521.077 312.721L433.618 312.698H334.97L334.917 298.459C345.12 298.459 358.296 293.233 353.214 278.866L338.237 228.702C335.398 227.467 319.887 227.046 284.233 227.046C248.579 227.046 239.332 227.467 236.29 228.702L222.127 275.711C218.716 287.043 227.194 298.459 239.031 298.459V312.495H169.621V298.459C181.676 298.459 190.275 290.651 193.912 279.16L281.47 1.40536L324.148 1.40536L408.084 278.513C413.227 291.795 421.164 298.437 432.451 298.437C445.034 298.437 453.911 290.146 453.911 273.738V39.7784C453.911 21.4507 441.133 14.794 428.482 14.794V1.6163L546.897 0.999115ZM756.539 14.7911C743.889 14.7911 731.299 21.4479 731.299 39.7755V298.427C770.59 297.885 801.56 282.094 822.063 264.075H854.307V312.703H653.515V298.668C666.165 298.668 679.004 291.183 679.004 274.098V39.7677C679.004 21.7269 665.899 14.9952 654.077 14.7892L653.515 14.7843V1.61435L756.539 1.61435V14.7911ZM1089 1.61435V48.9776H1056.78V48.9698C1035.55 29.972 996.014 8.60203 942.251 16.3351V133.146C945.21 134.456 951.509 134.833 957.431 134.833C964.152 134.833 999.952 134.607 999.952 134.607C1010.9 134.606 1020.88 123.583 1023.66 113.033H1039.39V177.587H1023.66C1020.67 167.49 1010.89 155.962 999.952 155.962C999.952 155.962 964.403 156.037 957.431 156.082C950.458 156.127 944.548 156.037 942.251 157.693V297.011C993.07 304.126 1030.87 286.409 1056.79 264.015H1089V312.703H864.678V298.668C877.335 298.751 889.986 292.117 889.94 273.789V39.7755C889.94 21.4479 877.328 14.7911 864.678 14.7911V1.61435L1089 1.61435ZM225.684 48.7677H193.132C177.982 34.5738 132.313 7.15001 78.6406 16.4493L78.6406 133.148C81.6451 134.51 86.2309 134.804 91.7803 134.804L136.342 134.698C147.441 134.698 157.268 123.674 160.054 113.125H175.783V177.679H160.054C157.064 167.581 147.283 156.053 136.342 156.053L91.7803 156.03C85.4479 156.03 81.3514 156.67 78.6406 157.687V273.73C78.6406 292.313 91.5318 298.661 104.062 298.661V312.697H1L1 298.661C13.1382 298.661 26.3076 292.313 26.3076 273.782L26.3076 39.7843C26.3076 21.4416 13.6502 14.7247 1 14.7247L1 1.60751L225.375 1.60751L225.684 48.7677ZM531.604 153.811C513.985 153.811 506.643 155.467 506.643 155.467V296.389C521.814 298.102 534.976 298.106 535.03 298.106C563.99 298.106 602.889 280.184 599.938 221.609C596.406 171.167 560.866 153.811 531.604 153.811ZM243.692 204.155C245.741 205.39 250.839 205.857 284.526 205.857C318.215 205.857 328.223 205.586 330.911 204.155L288.901 55.38L243.692 204.155ZM643.288 190.49C643.179 190.245 643.069 190.001 642.957 189.759C643.069 190.001 643.179 190.245 643.288 190.49ZM640.316 184.586C640.599 185.087 640.878 185.594 641.15 186.108C640.878 185.594 640.599 185.087 640.316 184.586ZM640.153 184.299C640.037 184.095 639.92 183.892 639.803 183.691C639.92 183.892 640.037 184.095 640.153 184.299ZM638.311 181.247C638.635 181.755 638.954 182.269 639.269 182.789C638.954 182.269 638.635 181.755 638.311 181.247ZM634.542 175.916C634.371 175.696 634.199 175.478 634.026 175.261L634.023 175.258C634.197 175.476 634.37 175.695 634.542 175.916ZM626.36 167.028C626.309 166.981 626.259 166.933 626.208 166.886L626.205 166.884C626.257 166.932 626.308 166.98 626.36 167.028ZM606.767 153.417C606.361 153.206 605.957 152.997 605.553 152.793L605.467 152.75C605.899 152.968 606.333 153.191 606.767 153.417ZM598.894 149.695C599.704 150.042 600.523 150.402 601.348 150.776C600.523 150.402 599.704 150.042 598.894 149.695ZM593.872 147.677C594.618 147.958 595.374 148.251 596.14 148.557C595.374 148.251 594.618 147.958 593.872 147.677ZM530.407 14.1768C510.22 14.1768 506.823 15.8331 506.823 15.8331V133.939C506.823 133.939 507.795 135.596 530.369 135.596C556.121 135.596 584.712 114.986 582.431 78.6544C579.652 34.3263 553.9 14.1769 530.407 14.1768Z"/>
</mask>
<path d="M546.897 0.999115C595.232 0.999115 627.979 37.5189 629.696 77.5929C631.413 117.667 594.817 139.812 584.697 144.564C594.762 147.621 609.402 153.09 622.277 163.497C622.369 163.571 622.46 163.646 622.552 163.721C622.863 163.975 623.174 164.231 623.483 164.491C623.578 164.571 623.672 164.651 623.767 164.731C624.35 165.225 624.929 165.73 625.503 166.246C625.565 166.302 625.627 166.357 625.688 166.413C626.021 166.714 626.352 167.02 626.682 167.328C626.765 167.406 626.849 167.484 626.932 167.563C627.087 167.709 627.242 167.857 627.396 168.005C627.637 168.236 627.877 168.468 628.115 168.703C628.238 168.824 628.36 168.946 628.482 169.068C628.642 169.228 628.8 169.389 628.959 169.55C629.156 169.751 629.353 169.953 629.549 170.156C629.719 170.333 629.889 170.511 630.058 170.69C630.172 170.811 630.286 170.933 630.399 171.055C630.649 171.323 630.897 171.592 631.144 171.865C631.233 171.965 631.322 172.065 631.411 172.165C631.589 172.365 631.767 172.566 631.943 172.769C632.048 172.889 632.154 173.009 632.259 173.13C632.506 173.417 632.751 173.706 632.995 173.998C633.066 174.083 633.136 174.168 633.206 174.253C633.427 174.52 633.646 174.79 633.864 175.062C636.159 177.919 638.293 181.02 640.207 184.391C640.232 184.434 640.257 184.478 640.281 184.522C640.732 185.319 641.169 186.131 641.595 186.958C641.62 187.007 641.645 187.056 641.67 187.106C641.782 187.325 641.893 187.546 642.004 187.768C642.039 187.838 642.075 187.908 642.109 187.979C642.519 188.809 642.916 189.655 643.3 190.516C643.318 190.557 643.336 190.598 643.354 190.64C643.464 190.887 643.573 191.135 643.68 191.384C643.709 191.451 643.738 191.519 643.767 191.586C643.964 192.05 644.158 192.519 644.348 192.992C644.278 192.818 644.208 192.645 644.137 192.472C644.249 192.746 644.362 193.022 644.472 193.3V193.299C644.699 193.873 644.919 194.454 645.134 195.041C645.138 195.053 645.142 195.064 645.146 195.075C645.187 195.187 645.228 195.298 645.269 195.41L645.276 195.432C645.356 195.653 645.435 195.874 645.513 196.097C648.377 204.291 650.057 213.731 650.057 224.613C650.057 286.509 603.891 312.721 521.077 312.721L433.618 312.698H334.97L334.917 298.459C345.12 298.459 358.296 293.233 353.214 278.866L338.237 228.702C335.398 227.467 319.887 227.046 284.233 227.046C248.579 227.046 239.332 227.467 236.29 228.702L222.127 275.711C218.716 287.043 227.194 298.459 239.031 298.459V312.495H169.621V298.459C181.676 298.459 190.275 290.651 193.912 279.16L281.47 1.40536L324.148 1.40536L408.084 278.513C413.227 291.795 421.164 298.437 432.451 298.437C445.034 298.437 453.911 290.146 453.911 273.738V39.7784C453.911 21.4507 441.133 14.794 428.482 14.794V1.6163L546.897 0.999115ZM756.539 14.7911C743.889 14.7911 731.299 21.4479 731.299 39.7755V298.427C770.59 297.885 801.56 282.094 822.063 264.075H854.307V312.703H653.515V298.668C666.165 298.668 679.004 291.183 679.004 274.098V39.7677C679.004 21.7269 665.899 14.9952 654.077 14.7892L653.515 14.7843V1.61435L756.539 1.61435V14.7911ZM1089 1.61435V48.9776H1056.78V48.9698C1035.55 29.972 996.014 8.60203 942.251 16.3351V133.146C945.21 134.456 951.509 134.833 957.431 134.833C964.152 134.833 999.952 134.607 999.952 134.607C1010.9 134.606 1020.88 123.583 1023.66 113.033H1039.39V177.587H1023.66C1020.67 167.49 1010.89 155.962 999.952 155.962C999.952 155.962 964.403 156.037 957.431 156.082C950.458 156.127 944.548 156.037 942.251 157.693V297.011C993.07 304.126 1030.87 286.409 1056.79 264.015H1089V312.703H864.678V298.668C877.335 298.751 889.986 292.117 889.94 273.789V39.7755C889.94 21.4479 877.328 14.7911 864.678 14.7911V1.61435L1089 1.61435ZM225.684 48.7677H193.132C177.982 34.5738 132.313 7.15001 78.6406 16.4493L78.6406 133.148C81.6451 134.51 86.2309 134.804 91.7803 134.804L136.342 134.698C147.441 134.698 157.268 123.674 160.054 113.125H175.783V177.679H160.054C157.064 167.581 147.283 156.053 136.342 156.053L91.7803 156.03C85.4479 156.03 81.3514 156.67 78.6406 157.687V273.73C78.6406 292.313 91.5318 298.661 104.062 298.661V312.697H1L1 298.661C13.1382 298.661 26.3076 292.313 26.3076 273.782L26.3076 39.7843C26.3076 21.4416 13.6502 14.7247 1 14.7247L1 1.60751L225.375 1.60751L225.684 48.7677ZM531.604 153.811C513.985 153.811 506.643 155.467 506.643 155.467V296.389C521.814 298.102 534.976 298.106 535.03 298.106C563.99 298.106 602.889 280.184 599.938 221.609C596.406 171.167 560.866 153.811 531.604 153.811ZM243.692 204.155C245.741 205.39 250.839 205.857 284.526 205.857C318.215 205.857 328.223 205.586 330.911 204.155L288.901 55.38L243.692 204.155ZM643.288 190.49C643.179 190.245 643.069 190.001 642.957 189.759C643.069 190.001 643.179 190.245 643.288 190.49ZM640.316 184.586C640.599 185.087 640.878 185.594 641.15 186.108C640.878 185.594 640.599 185.087 640.316 184.586ZM640.153 184.299C640.037 184.095 639.92 183.892 639.803 183.691C639.92 183.892 640.037 184.095 640.153 184.299ZM638.311 181.247C638.635 181.755 638.954 182.269 639.269 182.789C638.954 182.269 638.635 181.755 638.311 181.247ZM634.542 175.916C634.371 175.696 634.199 175.478 634.026 175.261L634.023 175.258C634.197 175.476 634.37 175.695 634.542 175.916ZM626.36 167.028C626.309 166.981 626.259 166.933 626.208 166.886L626.205 166.884C626.257 166.932 626.308 166.98 626.36 167.028ZM606.767 153.417C606.361 153.206 605.957 152.997 605.553 152.793L605.467 152.75C605.899 152.968 606.333 153.191 606.767 153.417ZM598.894 149.695C599.704 150.042 600.523 150.402 601.348 150.776C600.523 150.402 599.704 150.042 598.894 149.695ZM593.872 147.677C594.618 147.958 595.374 148.251 596.14 148.557C595.374 148.251 594.618 147.958 593.872 147.677ZM530.407 14.1768C510.22 14.1768 506.823 15.8331 506.823 15.8331V133.939C506.823 133.939 507.795 135.596 530.369 135.596C556.121 135.596 584.712 114.986 582.431 78.6544C579.652 34.3263 553.9 14.1769 530.407 14.1768Z" fill="#F2EFE5"/>
<path d="M546.897 0.999115V-6.31809e-06L546.892 2.08616e-05L546.897 0.999115ZM629.696 77.5929L630.694 77.5501V77.5501L629.696 77.5929ZM584.697 144.564L584.273 143.659L581.92 144.764L584.407 145.52L584.697 144.564ZM622.277 163.497L621.649 164.274V164.274L622.277 163.497ZM622.552 163.721L623.183 162.946L623.183 162.946L622.552 163.721ZM623.483 164.491L622.841 165.256V165.256L623.483 164.491ZM623.767 164.731L624.413 163.969V163.969L623.767 164.731ZM625.503 166.246L624.835 166.989L624.835 166.989L625.503 166.246ZM625.688 166.413L626.359 165.672L626.359 165.672L625.688 166.413ZM626.682 167.328L625.999 168.058V168.058L626.682 167.328ZM626.932 167.563L627.618 166.836L627.618 166.836L626.932 167.563ZM627.396 168.005L626.704 168.726L626.705 168.726L627.396 168.005ZM628.115 168.703L628.817 167.992L628.817 167.992L628.115 168.703ZM628.482 169.068L627.776 169.775L627.776 169.775L628.482 169.068ZM628.959 169.55L629.671 168.849L629.671 168.849L628.959 169.55ZM629.549 170.156L628.829 170.849L628.829 170.849L629.549 170.156ZM630.058 170.69L630.785 170.004L630.785 170.004L630.058 170.69ZM630.399 171.055L629.668 171.735L629.668 171.735L630.399 171.055ZM631.144 171.865L631.885 171.196L631.885 171.196L631.144 171.865ZM631.411 172.165L630.666 172.831L630.666 172.831L631.411 172.165ZM631.943 172.769L632.696 172.111V172.111L631.943 172.769ZM632.259 173.13L631.502 173.782L631.502 173.782L632.259 173.13ZM632.995 173.998L633.762 173.358L633.762 173.358L632.995 173.998ZM633.206 174.253L632.436 174.89V174.89L633.206 174.253ZM633.864 175.062L634.643 174.436L634.643 174.436L633.864 175.062ZM640.207 184.391L639.338 184.884V184.884L640.207 184.391ZM640.281 184.522L641.151 184.03V184.03L640.281 184.522ZM641.595 186.958L640.706 187.415V187.415L641.595 186.958ZM641.67 187.106L642.56 186.651L642.56 186.651L641.67 187.106ZM642.004 187.768L641.11 188.213V188.213L642.004 187.768ZM642.109 187.979L643.005 187.536L643.005 187.536L642.109 187.979ZM643.3 190.516L642.387 190.922L642.387 190.922L643.3 190.516ZM643.354 190.64L644.268 190.235V190.235L643.354 190.64ZM643.68 191.384L642.762 191.778L642.762 191.778L643.68 191.384ZM643.767 191.586L644.686 191.194V191.194L643.767 191.586ZM644.348 192.992L643.42 193.364L645.275 192.62L644.348 192.992ZM644.472 193.3L643.543 193.668L645.471 193.3H644.472ZM644.472 193.299L645.401 192.931L643.473 193.299H644.472ZM645.134 195.041L646.072 194.697L646.072 194.697L645.134 195.041ZM645.146 195.075L644.208 195.419V195.419L645.146 195.075ZM645.269 195.41L644.329 195.749L644.33 195.752L645.269 195.41ZM645.276 195.432L646.216 195.093L646.215 195.09L645.276 195.432ZM645.513 196.097L646.456 195.767V195.767L645.513 196.097ZM650.057 224.613H651.056V224.613H650.057ZM521.077 312.721L521.077 313.72H521.077V312.721ZM433.618 312.698L433.618 311.699H433.618V312.698ZM334.97 312.698L333.971 312.702L333.974 313.697H334.97V312.698ZM334.917 298.459V297.46L333.914 297.46L333.918 298.463L334.917 298.459ZM353.214 278.866L352.257 279.152L352.264 279.176L352.272 279.2L353.214 278.866ZM338.237 228.702L339.195 228.416L339.062 227.971L338.636 227.786L338.237 228.702ZM284.233 227.046V226.047V226.047V227.046ZM236.29 228.702L235.914 227.777L235.471 227.956L235.333 228.414L236.29 228.702ZM222.127 275.711L221.17 275.423L221.17 275.423L222.127 275.711ZM239.031 298.459H240.03V297.46H239.031V298.459ZM239.031 312.495V313.494H240.03V312.495H239.031ZM169.621 312.495H168.622V313.494H169.621V312.495ZM169.621 298.459V297.46H168.622V298.459H169.621ZM193.912 279.16L194.865 279.462L194.865 279.461L193.912 279.16ZM281.47 1.40536V0.406257L280.737 0.406257L280.517 1.10498L281.47 1.40536ZM324.148 1.40536L325.105 1.11573L324.89 0.406257L324.148 0.406257V1.40536ZM408.084 278.513L407.128 278.802L407.139 278.838L407.152 278.874L408.084 278.513ZM432.451 298.437V299.436V299.436V298.437ZM428.482 14.794H427.483V15.7931H428.482V14.794ZM428.482 1.6163L428.477 0.617208L427.483 0.622389V1.6163H428.482ZM756.539 14.7911V15.7902H757.538V14.7911H756.539ZM731.299 39.7755L730.3 39.7755V39.7755H731.299ZM731.299 298.427H730.3V299.44L731.313 299.426L731.299 298.427ZM822.063 264.075V263.076H821.687L821.404 263.325L822.063 264.075ZM854.307 264.075H855.306V263.076H854.307V264.075ZM854.307 312.703V313.702H855.306V312.703H854.307ZM653.515 312.703H652.516V313.702H653.515V312.703ZM653.515 298.668V297.669H652.516V298.668H653.515ZM679.004 274.098H680.003V274.098H679.004ZM679.004 39.7677H680.003V39.7677L679.004 39.7677ZM654.077 14.7892L654.095 13.7902L654.086 13.7901L654.077 14.7892ZM653.515 14.7843H652.516V15.7747L653.506 15.7833L653.515 14.7843ZM653.515 1.61435V0.615242H652.516V1.61435H653.515ZM756.539 1.61435H757.538V0.615242L756.539 0.615242V1.61435ZM1089 1.61435H1090V0.615242H1089V1.61435ZM1089 48.9776V49.9767H1090V48.9776H1089ZM1056.78 48.9776H1055.78V49.9767H1056.78V48.9776ZM1056.78 48.9698H1057.78V48.5231L1057.45 48.2252L1056.78 48.9698ZM942.251 16.3351L942.109 15.3461L941.252 15.4694V16.3351H942.251ZM942.251 133.146H941.252V133.796L941.846 134.059L942.251 133.146ZM957.431 134.833V135.832V135.832V134.833ZM999.952 134.607V133.607L999.946 133.607L999.952 134.607ZM1023.66 113.033V112.034H1022.89L1022.7 112.778L1023.66 113.033ZM1039.39 113.033H1040.39V112.034H1039.39V113.033ZM1039.39 177.587V178.586H1040.39V177.587H1039.39ZM1023.66 177.587L1022.71 177.871L1022.92 178.586H1023.66V177.587ZM999.952 155.962V154.963L999.95 154.963L999.952 155.962ZM957.431 156.082L957.437 157.081V157.081L957.431 156.082ZM942.251 157.693L941.667 156.883L941.252 157.182V157.693H942.251ZM942.251 297.011H941.252V297.88L942.112 298L942.251 297.011ZM1056.79 264.015V263.016H1056.42L1056.13 263.259L1056.79 264.015ZM1089 264.015H1090V263.016H1089V264.015ZM1089 312.703V313.702H1090V312.703H1089ZM864.678 312.703H863.679V313.702H864.678V312.703ZM864.678 298.668L864.684 297.669L863.679 297.662V298.668H864.678ZM889.94 273.789H888.941V273.792L889.94 273.789ZM889.94 39.7755H890.94V39.7755L889.94 39.7755ZM864.678 14.7911H863.679V15.7902H864.678V14.7911ZM864.678 1.61435V0.615242H863.679V1.61435H864.678ZM225.684 48.7677V49.7668H226.689L226.683 48.7611L225.684 48.7677ZM193.132 48.7677L192.449 49.4968L192.737 49.7668H193.132V48.7677ZM78.6406 16.4493L78.4701 15.4649L77.6415 15.6084V16.4493H78.6406ZM78.6406 133.148H77.6415V133.791L78.2279 134.057L78.6406 133.148ZM91.7803 134.804V135.803L91.7826 135.803L91.7803 134.804ZM136.342 134.698V133.699L136.339 133.699L136.342 134.698ZM160.054 113.125V112.126H159.284L159.088 112.87L160.054 113.125ZM175.783 113.125H176.782V112.126H175.783V113.125ZM175.783 177.679V178.678H176.782V177.679H175.783ZM160.054 177.679L159.096 177.962L159.308 178.678H160.054V177.679ZM136.342 156.053L136.341 157.052H136.342V156.053ZM91.7803 156.03L91.7808 155.031H91.7803V156.03ZM78.6406 157.687L78.2898 156.751L77.6415 156.994V157.687H78.6406ZM104.062 298.661H105.061V297.662H104.062V298.661ZM104.062 312.697V313.696H105.061V312.697H104.062ZM1 312.697H0.000892282V313.696H1V312.697ZM1 298.661V297.662H0.000892282V298.661H1ZM26.3076 39.7843H27.3067V39.7843L26.3076 39.7843ZM1 14.7247H0.000892282V15.7238H1V14.7247ZM1 1.60751L1 0.608406H0.000892282V1.60751H1ZM225.375 1.60751L226.374 1.60098L226.368 0.608406H225.375V1.60751ZM531.604 153.811V152.812V152.812V153.811ZM506.643 155.467L506.423 154.492L505.643 154.668V155.467H506.643ZM506.643 296.389H505.643V297.281L506.53 297.382L506.643 296.389ZM535.03 298.106L535.03 299.105H535.03V298.106ZM599.938 221.609L600.935 221.559L600.935 221.549L600.934 221.54L599.938 221.609ZM243.692 204.155L242.736 203.865L242.51 204.609L243.177 205.011L243.692 204.155ZM284.526 205.857V206.856V206.856V205.857ZM330.911 204.155L331.381 205.037L332.091 204.659L331.873 203.884L330.911 204.155ZM288.901 55.38L289.863 55.1085L288.937 51.8279L287.945 55.0895L288.901 55.38ZM634.026 175.261L634.808 174.638L634.773 174.594L634.733 174.554L634.026 175.261ZM634.023 175.258L634.73 174.551L633.242 175.881L634.023 175.258ZM626.208 166.886L626.885 166.151L626.827 166.098L626.762 166.055L626.208 166.886ZM626.205 166.884L626.759 166.053L625.528 167.619L626.205 166.884ZM605.553 152.793L606.004 151.901L606 151.899L605.553 152.793ZM605.467 152.75L605.914 151.856L605.017 153.642L605.467 152.75ZM530.407 14.1768V13.1777V13.1777V14.1768ZM506.823 15.8331L506.385 14.9351L505.824 15.2087V15.8331H506.823ZM506.823 133.939H505.824V134.21L505.961 134.444L506.823 133.939ZM530.369 135.596V136.595V136.595V135.596ZM582.431 78.6544L581.434 78.7169V78.717L582.431 78.6544ZM546.897 0.999115V1.99822C594.677 1.99822 627.003 38.0764 628.698 77.6356L629.696 77.5929L630.694 77.5501C628.956 36.9614 595.787 7.27177e-06 546.897 7.27177e-06V0.999115ZM629.696 77.5929L628.698 77.6356C629.542 97.3322 620.979 112.641 610.899 123.65C600.809 134.67 589.247 141.324 584.273 143.659L584.697 144.564L585.122 145.468C590.268 143.052 602.064 136.258 612.373 124.999C622.691 113.729 631.568 97.9275 630.694 77.5501L629.696 77.5929ZM584.697 144.564L584.407 145.52C594.422 148.562 608.92 153.985 621.649 164.274L622.277 163.497L622.905 162.72C609.884 152.194 595.101 146.68 584.988 143.608L584.697 144.564ZM622.277 163.497L621.649 164.274C621.739 164.347 621.825 164.417 621.92 164.495L622.552 163.721L623.183 162.946C623.095 162.875 622.999 162.796 622.905 162.72L622.277 163.497ZM622.552 163.721L621.92 164.495C622.229 164.747 622.536 165 622.841 165.256L623.483 164.491L624.126 163.726C623.812 163.463 623.498 163.203 623.183 162.946L622.552 163.721ZM623.483 164.491L622.841 165.256C622.933 165.334 623.026 165.413 623.12 165.493L623.767 164.731L624.413 163.969C624.318 163.888 624.222 163.807 624.126 163.726L623.483 164.491ZM623.767 164.731L623.12 165.493C623.696 165.981 624.268 166.48 624.835 166.989L625.503 166.246L626.171 165.503C625.589 164.981 625.003 164.469 624.413 163.969L623.767 164.731ZM625.503 166.246L624.835 166.989C624.898 167.046 624.958 167.1 625.018 167.154L625.688 166.413L626.359 165.672C626.295 165.615 626.232 165.558 626.171 165.503L625.503 166.246ZM625.688 166.413L625.018 167.154C625.346 167.451 625.673 167.752 625.999 168.058L626.682 167.328L627.364 166.599C627.032 166.287 626.697 165.978 626.359 165.672L625.688 166.413ZM626.682 167.328L625.999 168.058C626.084 168.138 626.165 168.213 626.246 168.289L626.932 167.563L627.618 166.836C627.532 166.756 627.446 166.675 627.364 166.599L626.682 167.328ZM626.932 167.563L626.246 168.289C626.399 168.434 626.552 168.58 626.704 168.726L627.396 168.005L628.089 167.284C627.932 167.134 627.774 166.984 627.618 166.836L626.932 167.563ZM627.396 168.005L626.705 168.726C626.943 168.955 627.18 169.184 627.414 169.415L628.115 168.703L628.817 167.992C628.574 167.753 628.331 167.517 628.088 167.284L627.396 168.005ZM628.115 168.703L627.414 169.415C627.534 169.533 627.654 169.653 627.776 169.775L628.482 169.068L629.189 168.362C629.067 168.24 628.942 168.116 628.817 167.992L628.115 168.703ZM628.482 169.068L627.776 169.775C627.932 169.931 628.088 170.089 628.247 170.25L628.959 169.55L629.671 168.849C629.513 168.688 629.352 168.524 629.189 168.362L628.482 169.068ZM628.959 169.55L628.247 170.25C628.442 170.449 628.636 170.648 628.829 170.849L629.549 170.156L630.269 169.464C630.07 169.257 629.871 169.053 629.671 168.849L628.959 169.55ZM629.549 170.156L628.829 170.849C628.998 171.025 629.165 171.2 629.331 171.375L630.058 170.69L630.785 170.004C630.612 169.821 630.439 169.641 630.269 169.464L629.549 170.156ZM630.058 170.69L629.331 171.375C629.443 171.494 629.555 171.614 629.668 171.735L630.399 171.055L631.131 170.374C631.016 170.251 630.901 170.127 630.785 170.004L630.058 170.69ZM630.399 171.055L629.668 171.735C629.915 172.001 630.16 172.267 630.402 172.535L631.144 171.865L631.885 171.196C631.634 170.918 631.382 170.644 631.131 170.374L630.399 171.055ZM631.144 171.865L630.402 172.535C630.49 172.632 630.571 172.724 630.666 172.831L631.411 172.165L632.156 171.5C632.073 171.406 631.977 171.297 631.885 171.196L631.144 171.865ZM631.411 172.165L630.666 172.831C630.841 173.027 631.016 173.225 631.191 173.426L631.943 172.769L632.696 172.111C632.518 171.907 632.338 171.703 632.156 171.5L631.411 172.165ZM631.943 172.769L631.191 173.426C631.301 173.552 631.4 173.664 631.502 173.782L632.259 173.13L633.016 172.478C632.909 172.353 632.795 172.225 632.696 172.111L631.943 172.769ZM632.259 173.13L631.502 173.782C631.746 174.065 631.988 174.35 632.228 174.639L632.995 173.998L633.762 173.358C633.515 173.062 633.266 172.769 633.016 172.478L632.259 173.13ZM632.995 173.998L632.228 174.638C632.297 174.721 632.362 174.801 632.436 174.89L633.206 174.253L633.976 173.616C633.909 173.535 633.835 173.445 633.762 173.358L632.995 173.998ZM633.206 174.253L632.436 174.89C632.653 175.152 632.869 175.418 633.085 175.687L633.864 175.062L634.643 174.436C634.423 174.162 634.201 173.888 633.976 173.616L633.206 174.253ZM633.864 175.062L633.085 175.687C635.348 178.505 637.451 181.562 639.338 184.884L640.207 184.391L641.076 183.897C639.134 180.478 636.969 177.333 634.643 174.436L633.864 175.062ZM640.207 184.391L639.338 184.884C639.363 184.928 639.387 184.971 639.411 185.013L640.281 184.522L641.151 184.03C641.126 183.985 641.1 183.94 641.076 183.897L640.207 184.391ZM640.281 184.522L639.411 185.013C639.855 185.798 640.287 186.599 640.706 187.415L641.595 186.958L642.483 186.501C642.052 185.663 641.608 184.839 641.151 184.03L640.281 184.522ZM641.595 186.958L640.706 187.415C640.732 187.465 640.751 187.503 640.78 187.56L641.67 187.106L642.56 186.651C642.539 186.61 642.508 186.549 642.483 186.501L641.595 186.958ZM641.67 187.106L640.78 187.56C640.891 187.777 641.001 187.994 641.11 188.213L642.004 187.768L642.898 187.322C642.786 187.098 642.673 186.874 642.56 186.651L641.67 187.106ZM642.004 187.768L641.11 188.213C641.151 188.297 641.178 188.349 641.214 188.421L642.109 187.979L643.005 187.536C642.971 187.467 642.927 187.379 642.898 187.322L642.004 187.768ZM642.109 187.979L641.214 188.421C641.618 189.239 642.009 190.073 642.387 190.922L643.3 190.516L644.212 190.109C643.824 189.236 643.421 188.379 643.005 187.536L642.109 187.979ZM643.3 190.516L642.387 190.922C642.408 190.97 642.415 190.986 642.441 191.045L643.354 190.64L644.268 190.235C644.257 190.21 644.228 190.144 644.212 190.109L643.3 190.516ZM643.354 190.64L642.441 191.045C642.549 191.289 642.656 191.533 642.762 191.778L643.68 191.384L644.598 190.989C644.489 190.736 644.378 190.484 644.268 190.235L643.354 190.64ZM643.68 191.384L642.762 191.778C642.793 191.851 642.819 191.912 642.847 191.978L643.767 191.586L644.686 191.194C644.656 191.125 644.625 191.052 644.598 190.989L643.68 191.384ZM643.767 191.586L642.847 191.978C643.042 192.435 643.233 192.897 643.42 193.364L644.348 192.992L645.275 192.62C645.083 192.141 644.887 191.666 644.686 191.194L643.767 191.586ZM644.348 192.992L645.275 192.62C645.204 192.445 645.133 192.269 645.061 192.092L644.137 192.472L643.212 192.851C643.282 193.021 643.351 193.192 643.42 193.364L644.348 192.992ZM644.137 192.472L643.212 192.851C643.325 193.124 643.435 193.396 643.543 193.668L644.472 193.3L645.401 192.932C645.288 192.649 645.174 192.369 645.061 192.092L644.137 192.472ZM644.472 193.3H645.471V193.299H644.472H643.473V193.3H644.472ZM644.472 193.299L643.543 193.667C643.766 194.231 643.983 194.804 644.196 195.385L645.134 195.041L646.072 194.697C645.854 194.104 645.632 193.515 645.401 192.931L644.472 193.299ZM645.134 195.041L644.196 195.385C644.199 195.394 644.202 195.403 644.204 195.408C644.207 195.414 644.208 195.417 644.208 195.419L645.146 195.075L646.085 194.732C646.081 194.722 646.078 194.714 646.076 194.708C646.074 194.702 646.073 194.699 646.072 194.697L645.134 195.041ZM645.146 195.075L644.208 195.419C644.249 195.531 644.289 195.64 644.329 195.749L645.269 195.41L646.208 195.071C646.167 194.957 646.125 194.843 646.085 194.732L645.146 195.075ZM645.269 195.41L644.33 195.752L644.337 195.773L645.276 195.432L646.215 195.09L646.208 195.069L645.269 195.41ZM645.276 195.432L644.336 195.77C644.415 195.989 644.493 196.208 644.57 196.426L645.513 196.097L646.456 195.767C646.377 195.541 646.297 195.316 646.216 195.093L645.276 195.432ZM645.513 196.097L644.57 196.426C647.394 204.508 649.057 213.835 649.058 224.613H650.057H651.056C651.056 213.626 649.36 204.074 646.456 195.767L645.513 196.097ZM650.057 224.613H649.058C649.058 255.27 637.65 276.96 616.076 291.041C594.424 305.174 562.412 311.722 521.077 311.722V312.721V313.72C562.555 313.72 595.034 307.162 617.168 292.715C639.38 278.216 651.056 255.852 651.056 224.613H650.057ZM521.077 312.721L521.077 311.722L433.618 311.699L433.618 312.698L433.618 313.697L521.077 313.72L521.077 312.721ZM433.618 312.698V311.699H334.97V312.698V313.697H433.618V312.698ZM334.97 312.698L335.969 312.695L335.916 298.455L334.917 298.459L333.918 298.463L333.971 312.702L334.97 312.698ZM334.917 298.459V299.458C340.143 299.458 346.241 298.127 350.416 294.835C352.522 293.174 354.153 291 354.898 288.25C355.642 285.503 355.478 282.272 354.156 278.533L353.214 278.866L352.272 279.2C353.491 282.644 353.585 285.454 352.97 287.727C352.355 289.997 351.007 291.824 349.179 293.266C345.486 296.178 339.894 297.46 334.917 297.46V298.459ZM353.214 278.866L354.171 278.58L339.195 228.416L338.237 228.702L337.28 228.988L352.257 279.152L353.214 278.866ZM338.237 228.702L338.636 227.786C338.166 227.582 337.515 227.424 336.731 227.291C335.929 227.156 334.923 227.035 333.703 226.927C331.264 226.712 327.922 226.542 323.571 226.412C314.865 226.152 302.061 226.047 284.233 226.047V227.046V228.045C302.06 228.045 314.838 228.15 323.511 228.41C327.849 228.539 331.146 228.707 333.527 228.918C334.719 229.023 335.668 229.138 336.397 229.262C337.144 229.388 337.599 229.514 337.839 229.618L338.237 228.702ZM284.233 227.046V226.047C266.408 226.047 255.165 226.152 247.996 226.413C244.412 226.543 241.827 226.712 239.936 226.93C238.059 227.146 236.803 227.416 235.914 227.777L236.29 228.702L236.666 229.628C237.299 229.371 238.339 229.125 240.165 228.915C241.978 228.706 244.503 228.539 248.069 228.409C255.197 228.151 266.405 228.045 284.233 228.045V227.046ZM236.29 228.702L235.333 228.414L221.17 275.423L222.127 275.711L223.084 275.999L237.247 228.99L236.29 228.702ZM222.127 275.711L221.17 275.423C217.566 287.396 226.524 299.458 239.031 299.458V298.459V297.46C227.864 297.46 219.865 286.691 223.084 275.999L222.127 275.711ZM239.031 298.459H238.032V312.495H239.031H240.03V298.459H239.031ZM239.031 312.495V311.496H169.621V312.495V313.494H239.031V312.495ZM169.621 312.495H170.62V298.459H169.621H168.622V312.495H169.621ZM169.621 298.459V299.458C182.203 299.458 191.126 291.274 194.865 279.462L193.912 279.16L192.96 278.859C189.425 290.027 181.15 297.46 169.621 297.46V298.459ZM193.912 279.16L194.865 279.461L282.423 1.70575L281.47 1.40536L280.517 1.10498L192.959 278.86L193.912 279.16ZM281.47 1.40536V2.40447L324.148 2.40447V1.40536V0.406257L281.47 0.406257V1.40536ZM324.148 1.40536L323.192 1.695L407.128 278.802L408.084 278.513L409.04 278.223L325.105 1.11573L324.148 1.40536ZM408.084 278.513L407.152 278.874C409.763 285.616 413.116 290.763 417.329 294.227C421.559 297.706 426.594 299.436 432.451 299.436V298.437V297.438C427.021 297.438 422.444 295.846 418.598 292.684C414.734 289.507 411.548 284.692 409.016 278.152L408.084 278.513ZM432.451 298.437V299.436C438.968 299.436 444.62 297.282 448.635 292.917C452.642 288.56 454.91 282.117 454.91 273.738H453.911H452.912C452.912 281.767 450.742 287.674 447.164 291.564C443.595 295.445 438.516 297.437 432.451 297.438V298.437ZM453.911 273.738H454.91V39.7784H453.911H452.912V273.738H453.911ZM453.911 39.7784H454.91C454.91 30.3601 451.614 23.8147 446.578 19.6438C441.573 15.499 434.966 13.7949 428.482 13.7949V14.794V15.7931C434.649 15.7931 440.756 17.4174 445.303 21.1828C449.819 24.9222 452.912 30.869 452.912 39.7784H453.911ZM428.482 14.794H429.482V1.6163H428.482H427.483V14.794H428.482ZM428.482 1.6163L428.488 2.6154L546.903 1.99821L546.897 0.999115L546.892 2.08616e-05L428.477 0.617208L428.482 1.6163ZM756.539 14.7911V13.792C750.055 13.792 743.493 15.4964 738.534 19.6441C733.545 23.817 730.3 30.3624 730.3 39.7755L731.299 39.7755L732.298 39.7755C732.298 30.861 735.348 24.9142 739.816 21.1768C744.315 17.4142 750.373 15.7902 756.539 15.7902V14.7911ZM731.299 39.7755H730.3V298.427H731.299H732.298V39.7755H731.299ZM731.299 298.427L731.313 299.426C770.873 298.88 802.066 282.979 822.723 264.826L822.063 264.075L821.404 263.325C801.053 281.209 770.306 296.889 731.285 297.428L731.299 298.427ZM822.063 264.075V265.074H854.307V264.075V263.076H822.063V264.075ZM854.307 264.075H853.308V312.703H854.307H855.306V264.075H854.307ZM854.307 312.703V311.704H653.515V312.703V313.702H854.307V312.703ZM653.515 312.703H654.514V298.668H653.515H652.516V312.703H653.515ZM653.515 298.668V299.667C660.023 299.667 666.638 297.743 671.644 293.556C676.677 289.347 680.003 282.917 680.003 274.098H679.004H678.005C678.005 282.364 674.912 288.219 670.362 292.023C665.786 295.85 659.656 297.669 653.515 297.669V298.668ZM679.004 274.098H680.003V39.7677H679.004H678.005V274.098H679.004ZM679.004 39.7677L680.003 39.7677C680.003 30.4788 676.616 23.9938 671.614 19.823C666.643 15.6782 660.172 13.8961 654.095 13.7902L654.077 14.7892L654.06 15.7881C659.805 15.8883 665.797 17.575 670.334 21.3577C674.839 25.1145 678.005 31.0157 678.005 39.7677L679.004 39.7677ZM654.077 14.7892L654.086 13.7901L653.523 13.7852L653.515 14.7843L653.506 15.7833L654.068 15.7882L654.077 14.7892ZM653.515 14.7843L654.514 14.7843V1.61435H653.515H652.516V14.7843H653.515ZM653.515 1.61435V2.61346L756.539 2.61346V1.61435V0.615242L653.515 0.615242V1.61435ZM756.539 1.61435H755.54V14.7911H756.539H757.538V1.61435H756.539ZM1089 1.61435H1088V48.9776H1089H1090V1.61435H1089ZM1089 48.9776V47.9785H1056.78V48.9776V49.9767H1089V48.9776ZM1056.78 48.9776H1057.78V48.9698H1056.78H1055.78V48.9776H1056.78ZM1056.78 48.9698L1057.45 48.2252C1036.04 29.0752 996.225 7.56235 942.109 15.3461L942.251 16.3351L942.393 17.324C995.803 9.64171 1035.05 30.8688 1056.11 49.7144L1056.78 48.9698ZM942.251 16.3351H941.252V133.146H942.251H943.25V16.3351H942.251ZM942.251 133.146L941.846 134.059C943.484 134.784 945.937 135.216 948.634 135.475C951.363 135.737 954.453 135.832 957.431 135.832V134.833V133.834C954.487 133.834 951.467 133.74 948.826 133.486C946.154 133.229 943.978 132.817 942.655 132.232L942.251 133.146ZM957.431 134.833V135.832C960.795 135.832 971.429 135.776 981.218 135.719C986.113 135.691 990.798 135.662 994.259 135.641C995.99 135.63 997.415 135.622 998.407 135.615C998.903 135.612 999.291 135.61 999.555 135.608C999.687 135.607 999.788 135.607 999.856 135.606C999.89 135.606 999.915 135.606 999.932 135.606C999.941 135.606 999.948 135.606 999.952 135.606C999.954 135.606 999.956 135.606 999.957 135.606C999.957 135.606 999.958 135.606 999.958 135.606C999.958 135.606 999.958 135.606 999.952 134.607C999.946 133.607 999.946 133.607 999.945 133.607C999.945 133.607 999.945 133.607 999.944 133.607C999.943 133.607 999.941 133.607 999.939 133.607C999.935 133.608 999.928 133.608 999.92 133.608C999.903 133.608 999.877 133.608 999.843 133.608C999.775 133.609 999.674 133.609 999.542 133.61C999.278 133.612 998.891 133.614 998.394 133.617C997.402 133.623 995.978 133.632 994.247 133.643C990.786 133.664 986.101 133.692 981.206 133.721C971.414 133.777 960.788 133.834 957.431 133.834V134.833ZM999.952 134.607V135.606C1005.77 135.606 1011.23 132.685 1015.56 128.494C1019.9 124.299 1023.19 118.748 1024.63 113.288L1023.66 113.033L1022.7 112.778C1021.35 117.868 1018.26 123.103 1014.18 127.058C1010.09 131.016 1005.09 133.607 999.952 133.607V134.607ZM1023.66 113.033V114.032H1039.39V113.033V112.034H1023.66V113.033ZM1039.39 113.033H1038.39V177.587H1039.39H1040.39V113.033H1039.39ZM1039.39 177.587V176.588H1023.66V177.587V178.586H1039.39V177.587ZM1023.66 177.587L1024.62 177.303C1023.08 172.089 1019.79 166.537 1015.49 162.278C1011.2 158.025 1005.78 154.963 999.952 154.963V155.962V156.961C1005.07 156.961 1010.01 159.663 1014.09 163.698C1018.16 167.727 1021.26 172.988 1022.71 177.871L1023.66 177.587ZM999.952 155.962C999.95 154.963 999.95 154.963 999.95 154.963C999.949 154.963 999.949 154.963 999.948 154.963C999.947 154.963 999.946 154.963 999.944 154.963C999.939 154.963 999.933 154.963 999.924 154.963C999.907 154.963 999.882 154.963 999.848 154.963C999.78 154.963 999.68 154.963 999.549 154.964C999.287 154.964 998.902 154.965 998.409 154.966C997.423 154.968 996.007 154.971 994.286 154.975C990.845 154.983 986.183 154.994 981.304 155.006C971.546 155.03 960.913 155.06 957.424 155.083L957.431 156.082L957.437 157.081C960.921 157.059 971.549 157.029 981.309 157.004C986.188 156.992 990.849 156.981 994.291 156.974C996.012 156.97 997.428 156.967 998.413 156.964C998.906 156.963 999.291 156.963 999.553 156.962C999.684 156.962 999.785 156.961 999.852 156.961C999.886 156.961 999.911 156.961 999.928 156.961C999.937 156.961 999.943 156.961 999.948 156.961C999.95 156.961 999.952 156.961 999.953 156.961C999.953 156.961 999.954 156.961 999.954 156.961C999.954 156.961 999.954 156.961 999.952 155.962ZM957.431 156.082L957.424 155.083C953.96 155.105 950.694 155.094 948.016 155.287C946.673 155.384 945.445 155.534 944.389 155.775C943.344 156.014 942.396 156.357 941.667 156.883L942.251 157.693L942.835 158.504C943.254 158.202 943.907 157.935 944.834 157.723C945.75 157.514 946.866 157.373 948.159 157.28C950.754 157.093 953.929 157.104 957.437 157.081L957.431 156.082ZM942.251 157.693H941.252V297.011H942.251H943.25V157.693H942.251ZM942.251 297.011L942.112 298C993.265 305.163 1031.34 287.318 1057.44 264.771L1056.79 264.015L1056.13 263.259C1030.39 285.499 992.875 303.09 942.39 296.021L942.251 297.011ZM1056.79 264.015V265.014H1089V264.015V263.016H1056.79V264.015ZM1089 264.015H1088V312.703H1089H1090V264.015H1089ZM1089 312.703V311.704H864.678V312.703V313.702H1089V312.703ZM864.678 312.703H865.677V298.668H864.678H863.679V312.703H864.678ZM864.678 298.668L864.671 299.667C871.16 299.71 877.74 298.033 882.711 293.901C887.713 289.743 890.963 283.202 890.94 273.787L889.94 273.789L888.941 273.792C888.963 282.704 885.91 288.643 881.434 292.364C876.927 296.111 870.853 297.709 864.684 297.669L864.678 298.668ZM889.94 273.789H890.94V39.7755H889.94H888.941V273.789H889.94ZM889.94 39.7755L890.94 39.7755C890.94 30.3618 887.688 23.8164 882.693 19.6437C877.729 15.4964 871.162 13.792 864.678 13.792V14.7911V15.7902C870.844 15.7902 876.908 17.4142 881.412 21.1772C885.886 24.9148 888.941 30.8616 888.941 39.7755L889.94 39.7755ZM864.678 14.7911H865.677V1.61435H864.678H863.679V14.7911H864.678ZM864.678 1.61435V2.61346L1089 2.61346V1.61435V0.615242L864.678 0.615242V1.61435ZM225.684 48.7677V47.7686H193.132V48.7677V49.7668H225.684V48.7677ZM193.132 48.7677L193.815 48.0386C178.513 33.7024 132.542 6.09632 78.4701 15.4649L78.6406 16.4493L78.8112 17.4338C132.084 8.20369 177.45 35.4452 192.449 49.4968L193.132 48.7677ZM78.6406 16.4493H77.6415L77.6415 133.148H78.6406H79.6397L79.6397 16.4493H78.6406ZM78.6406 133.148L78.2279 134.057C81.4594 135.523 86.2628 135.803 91.7803 135.803V134.804V133.805C86.199 133.805 81.8307 133.497 79.0534 132.238L78.6406 133.148ZM91.7803 134.804L91.7826 135.803L136.344 135.697L136.342 134.698L136.339 133.699L91.7779 133.805L91.7803 134.804ZM136.342 134.698V135.697C142.228 135.697 147.696 132.778 152.011 128.584C156.329 124.388 159.579 118.836 161.02 113.38L160.054 113.125L159.088 112.87C157.743 117.963 154.686 123.199 150.619 127.151C146.549 131.106 141.554 133.699 136.342 133.699V134.698ZM160.054 113.125V114.124H175.783V113.125V112.126H160.054V113.125ZM175.783 113.125H174.784V177.679H175.783H176.782V113.125H175.783ZM175.783 177.679V176.68H160.054V177.679V178.678H175.783V177.679ZM160.054 177.679L161.012 177.395C159.468 172.18 156.185 166.628 151.882 162.369C147.586 158.116 142.167 155.054 136.342 155.054V156.053V157.052C141.458 157.052 146.4 159.754 150.477 163.789C154.547 167.819 157.65 173.08 159.096 177.962L160.054 177.679ZM136.342 156.053L136.342 155.054L91.7808 155.031L91.7803 156.03L91.7798 157.029L136.341 157.052L136.342 156.053ZM91.7803 156.03V155.031C85.3998 155.031 81.1646 155.673 78.2898 156.751L78.6406 157.687L78.9914 158.622C81.5382 157.667 85.4959 157.029 91.7803 157.029V156.03ZM78.6406 157.687H77.6415V273.73H78.6406H79.6397V157.687H78.6406ZM78.6406 273.73H77.6415C77.6415 283.275 80.9655 289.811 86.0206 293.938C91.0413 298.037 97.6463 299.66 104.062 299.66V298.661V297.662C97.947 297.662 91.8416 296.111 87.2843 292.39C82.7614 288.698 79.6397 282.768 79.6397 273.73H78.6406ZM104.062 298.661H103.062V312.697H104.062H105.061V298.661H104.062ZM104.062 312.697V311.698H1L1 312.697V313.696H104.062V312.697ZM1 312.697H1.99911L1.99911 298.661H1H0.000892282L0.000892282 312.697H1ZM1 298.661L1 299.66C7.22476 299.66 13.7978 298.035 18.8352 293.947C23.9074 289.83 27.3067 283.31 27.3067 273.782H26.3076H25.3085C25.3085 282.786 22.1231 288.705 17.576 292.395C12.9942 296.114 6.9134 297.662 1 297.662V298.661ZM26.3076 273.782H27.3067L27.3067 39.7843H26.3076H25.3085L25.3085 273.782H26.3076ZM26.3076 39.7843L27.3067 39.7843C27.3067 30.3622 24.0437 23.7989 19.0389 19.6098C14.064 15.4459 7.48582 13.7256 1 13.7256L1 14.7247V15.7238C7.16434 15.7238 13.2399 17.3619 17.7563 21.1421C22.2427 24.8972 25.3085 30.8636 25.3085 39.7843L26.3076 39.7843ZM1 14.7247H1.99911L1.99911 1.60751H1H0.000892282L0.000892282 14.7247H1ZM1 1.60751L1 2.60662L225.375 2.60662V1.60751V0.608406L1 0.608406L1 1.60751ZM225.375 1.60751L224.376 1.61405L224.685 48.7742L225.684 48.7677L226.683 48.7611L226.374 1.60098L225.375 1.60751ZM531.604 153.811V152.812C522.763 152.812 516.489 153.227 512.414 153.645C510.377 153.854 508.889 154.063 507.906 154.222C507.414 154.301 507.049 154.367 506.804 154.415C506.681 154.438 506.588 154.457 506.525 154.47C506.493 154.477 506.469 154.482 506.452 154.486C506.444 154.488 506.437 154.489 506.432 154.49C506.43 154.491 506.428 154.491 506.426 154.492C506.425 154.492 506.425 154.492 506.424 154.492C506.424 154.492 506.423 154.492 506.423 154.492C506.423 154.492 506.423 154.492 506.643 155.467C506.862 156.441 506.862 156.442 506.862 156.442C506.862 156.442 506.862 156.442 506.862 156.442C506.862 156.442 506.862 156.442 506.862 156.442C506.862 156.442 506.863 156.441 506.864 156.441C506.866 156.441 506.87 156.44 506.876 156.438C506.888 156.436 506.907 156.432 506.934 156.426C506.987 156.415 507.069 156.398 507.181 156.377C507.406 156.333 507.752 156.271 508.224 156.194C509.168 156.042 510.617 155.838 512.618 155.633C516.619 155.222 522.826 154.81 531.604 154.81V153.811ZM506.643 155.467H505.643V296.389H506.643H507.642V155.467H506.643ZM506.643 296.389L506.53 297.382C521.756 299.101 534.961 299.105 535.03 299.105L535.03 298.106L535.03 297.106C534.991 297.106 521.872 297.103 506.755 295.396L506.643 296.389ZM535.03 298.106V299.105C549.694 299.105 566.92 294.571 580.123 282.562C593.357 270.525 602.423 251.091 600.935 221.559L599.938 221.609L598.94 221.66C600.403 250.703 591.496 269.517 578.778 281.084C566.029 292.68 549.326 297.106 535.03 297.106V298.106ZM599.938 221.609L600.934 221.54C599.151 196.074 589.272 178.858 576.053 168.021C562.857 157.203 546.419 152.812 531.604 152.812V153.811V154.81C546.051 154.81 562.014 159.096 574.786 169.567C587.536 180.019 597.192 196.702 598.941 221.679L599.938 221.609ZM243.692 204.155L243.177 205.011C243.837 205.409 244.675 205.699 246.034 205.927C247.386 206.155 249.316 206.331 252.198 206.467C257.967 206.739 267.686 206.856 284.526 206.856V205.857V204.857C267.679 204.857 258.006 204.741 252.292 204.471C249.432 204.336 247.598 204.164 246.365 203.957C245.139 203.751 244.572 203.519 244.208 203.3L243.692 204.155ZM284.526 205.857V206.856C301.367 206.856 312.309 206.788 319.379 206.541C322.912 206.417 325.502 206.248 327.389 206.016C329.244 205.788 330.534 205.488 331.381 205.037L330.911 204.155L330.442 203.273C329.944 203.538 328.975 203.808 327.145 204.033C325.346 204.254 322.825 204.421 319.309 204.544C312.281 204.79 301.374 204.857 284.526 204.857V205.857ZM330.911 204.155L331.873 203.884L289.863 55.1085L288.901 55.38L287.94 55.6515L329.95 204.427L330.911 204.155ZM288.901 55.38L287.945 55.0895L242.736 203.865L243.692 204.155L244.648 204.446L289.857 55.6705L288.901 55.38ZM643.288 190.49L644.201 190.083C644.09 189.835 643.978 189.588 643.865 189.342L642.957 189.759L642.049 190.176C642.159 190.415 642.268 190.655 642.376 190.897L643.288 190.49ZM642.957 189.759L642.049 190.176C642.159 190.415 642.268 190.655 642.376 190.897L643.288 190.49L644.201 190.083C644.09 189.835 643.978 189.588 643.865 189.342L642.957 189.759ZM640.316 184.586L639.446 185.077C639.725 185.572 640 186.071 640.268 186.576L641.15 186.108L642.033 185.639C641.755 185.117 641.473 184.603 641.187 184.095L640.316 184.586ZM641.15 186.108L642.033 185.639C641.755 185.117 641.473 184.603 641.187 184.095L640.316 184.586L639.446 185.077C639.725 185.572 640 186.071 640.268 186.576L641.15 186.108ZM640.153 184.299L641.021 183.804C640.904 183.598 640.785 183.392 640.666 183.187L639.803 183.691L638.94 184.194C639.055 184.392 639.171 184.592 639.285 184.794L640.153 184.299ZM639.803 183.691L638.94 184.194C639.055 184.392 639.171 184.592 639.285 184.794L640.153 184.299L641.021 183.804C640.904 183.598 640.785 183.392 640.666 183.187L639.803 183.691ZM638.311 181.247L637.469 181.785C637.789 182.285 638.103 182.792 638.413 183.305L639.269 182.789L640.124 182.273C639.805 181.745 639.482 181.224 639.152 180.709L638.311 181.247ZM639.269 182.789L640.124 182.273C639.805 181.745 639.482 181.224 639.152 180.709L638.311 181.247L637.469 181.785C637.789 182.285 638.103 182.792 638.413 183.305L639.269 182.789ZM634.542 175.916L635.33 175.302C635.158 175.081 634.984 174.859 634.808 174.638L634.026 175.261L633.245 175.884C633.415 176.097 633.584 176.312 633.754 176.53L634.542 175.916ZM634.026 175.261L634.733 174.554L634.73 174.551L634.023 175.258L633.317 175.964L633.32 175.967L634.026 175.261ZM634.023 175.258L633.242 175.881C633.414 176.096 633.584 176.312 633.754 176.53L634.542 175.916L635.33 175.302C635.156 175.079 634.981 174.856 634.805 174.635L634.023 175.258ZM626.36 167.028L627.039 166.295C627.036 166.293 626.908 166.172 626.885 166.151L626.208 166.886L625.531 167.621C625.611 167.694 625.582 167.67 625.682 167.762L626.36 167.028ZM626.208 166.886L626.762 166.055L626.759 166.053L626.205 166.884L625.651 167.715L625.654 167.717L626.208 166.886ZM626.205 166.884L625.528 167.619C625.588 167.674 625.61 167.696 625.682 167.762L626.36 167.028L627.039 166.295C627.007 166.265 626.926 166.19 626.882 166.149L626.205 166.884ZM606.767 153.417L607.229 152.531C606.82 152.318 606.412 152.108 606.004 151.901L605.553 152.793L605.102 153.685C605.502 153.887 605.902 154.093 606.304 154.303L606.767 153.417ZM605.553 152.793L606 151.899L605.914 151.856L605.467 152.75L605.02 153.644L605.106 153.687L605.553 152.793ZM605.467 152.75L605.017 153.642C605.445 153.858 605.874 154.078 606.304 154.303L606.767 153.417L607.229 152.531C606.791 152.303 606.353 152.078 605.917 151.858L605.467 152.75ZM598.894 149.695L598.501 150.614C599.305 150.958 600.117 151.315 600.934 151.686L601.348 150.776L601.761 149.867C600.929 149.489 600.103 149.126 599.286 148.777L598.894 149.695ZM601.348 150.776L601.761 149.867C600.929 149.489 600.103 149.126 599.286 148.777L598.894 149.695L598.501 150.614C599.305 150.958 600.117 151.315 600.934 151.686L601.348 150.776ZM593.872 147.677L593.519 148.612C594.259 148.891 595.01 149.182 595.769 149.485L596.14 148.557L596.51 147.629C595.738 147.321 594.976 147.026 594.225 146.742L593.872 147.677ZM596.14 148.557L596.51 147.629C595.738 147.321 594.976 147.026 594.225 146.742L593.872 147.677L593.519 148.612C594.259 148.891 595.01 149.182 595.769 149.485L596.14 148.557ZM530.407 14.1768V13.1777C520.29 13.1777 514.35 13.5925 510.923 14.0133C509.209 14.2238 508.113 14.437 507.432 14.6039C507.09 14.6875 506.85 14.7603 506.685 14.8167C506.603 14.8449 506.538 14.8693 506.49 14.8891C506.465 14.899 506.445 14.9079 506.427 14.9155C506.419 14.9194 506.411 14.9229 506.404 14.9262C506.401 14.9278 506.397 14.9294 506.394 14.9309C506.393 14.9316 506.391 14.9323 506.39 14.933C506.389 14.9334 506.388 14.9339 506.387 14.9341C506.386 14.9346 506.385 14.9351 506.823 15.8331C507.261 16.7311 507.26 16.7316 507.259 16.7321C507.259 16.7323 507.258 16.7327 507.257 16.733C507.256 16.7336 507.255 16.7342 507.254 16.7347C507.251 16.7358 507.249 16.7368 507.248 16.7376C507.244 16.7393 507.241 16.7405 507.24 16.7412C507.237 16.7426 507.238 16.7421 507.243 16.7399C507.254 16.7355 507.282 16.7242 507.332 16.7072C507.432 16.673 507.615 16.6164 507.907 16.5447C508.493 16.4011 509.508 16.2002 511.167 15.9966C514.484 15.5893 520.337 15.176 530.407 15.176V14.1768ZM506.823 15.8331H505.824V133.939H506.823H507.822V15.8331H506.823ZM506.823 133.939C505.961 134.444 505.964 134.448 505.966 134.452C505.967 134.454 505.97 134.458 505.971 134.461C505.975 134.466 505.978 134.472 505.982 134.477C505.989 134.488 505.996 134.499 506.003 134.51C506.018 134.531 506.033 134.551 506.049 134.57C506.08 134.609 506.113 134.645 506.147 134.678C506.215 134.743 506.29 134.8 506.37 134.851C506.526 134.951 506.729 135.046 506.998 135.141C507.533 135.328 508.435 135.546 509.997 135.757C513.128 136.181 519.067 136.595 530.369 136.595V135.596V134.597C519.097 134.597 513.263 134.182 510.265 133.777C508.762 133.574 508.011 133.378 507.658 133.255C507.483 133.193 507.433 133.159 507.448 133.169C507.458 133.175 507.49 133.196 507.532 133.237C507.554 133.258 507.578 133.284 507.605 133.316C507.618 133.333 507.631 133.35 507.645 133.37C507.651 133.38 507.658 133.39 507.665 133.4C507.668 133.406 507.672 133.411 507.675 133.416C507.677 133.419 507.679 133.423 507.68 133.425C507.683 133.429 507.685 133.433 506.823 133.939ZM530.369 135.596V136.595C556.596 136.595 585.752 115.595 583.428 78.5918L582.431 78.6544L581.434 78.717C583.673 114.377 555.646 134.597 530.369 134.597V135.596ZM582.431 78.6544L583.428 78.5919C580.625 33.8764 554.557 13.1778 530.407 13.1777V14.1768V15.176C553.244 15.176 578.679 34.7762 581.434 78.7169L582.431 78.6544Z" fill="#332B2B" mask="url(#path-1-outside-1_2568_19745)"/>
</svg>
