<svg width="48" height="36" viewBox="0 0 48 36" fill="none" xmlns="http://www.w3.org/2000/svg">
<path d="M48.0006 0.000488281L41.1314 35.7598H22.791L29.6603 0.000488281H48.0006ZM23.1746 35.4428H40.8696L47.617 0.317409H29.9221L23.1746 35.4428Z" fill="#332B2B"/>
<path fill-rule="evenodd" clip-rule="evenodd" d="M35.1147 11.8062H33.5171L34.0317 9.22021C34.2804 7.41098 33.9033 6.59314 33.686 6.12256L33.6801 6.11084L32.5991 11.6812C32.4044 13.1304 33.9871 13.5284 34.7622 13.5464H40.6294C42.9547 13.5464 43.79 15.4111 43.9008 16.1968C44.2164 18.4349 43.4074 20.2835 42.9585 21.3003C41.8753 23.7534 41.9017 25.0017 42.4965 25.9751C40.5159 29.4347 40.8371 33.507 40.6479 35.1655H34.1772C37.5029 31.8125 39.6964 24.4559 37.8081 21.5112H35.313C35.313 24.2422 36.1141 25.3269 36.9253 25.6333C34.1651 29.921 33.5701 33.9839 33.4018 35.1353L33.3979 35.1655H30.6645C33.098 32.732 34.0048 29.6622 34.3022 27.6343C34.8178 24.1192 32.4607 21.8149 32.2758 21.5112C29.1394 23.5661 27.8523 26.7148 27.5698 27.8765C27.2874 29.0379 27.1519 30.9398 27.4292 31.5474C27.7065 32.1548 28.5171 32.2464 28.8686 31.7056L28.0366 35.1655C25.2517 33.8405 26.3344 29.4446 26.8481 26.7407C27.3618 24.0368 28.2212 21.5112 28.2212 21.5112C26.4641 20.1863 26.7697 17.8435 26.9409 16.9692L29.2387 5.30908C29.8877 1.98331 32.3013 0.595215 35.2485 0.595215H37.2495L35.1147 11.8062ZM40.0883 22.145C39.764 23.9186 40.3053 25.4701 40.5757 25.6323C38.5424 28.7472 37.4684 33.4052 37.5044 34.8745C38.9701 33.7785 40.208 30.4116 40.5757 28.3384C40.9432 26.2653 41.1428 23.928 40.0883 22.145Z" fill="#332B2B"/>
<path d="M22.4162 0.000244141C20.3605 0.000244141 18.0647 0.545334 17.587 2.74458C17.1094 4.94382 12.3998 29.7733 12.0435 31.9725C11.6872 34.1718 11.7024 35.8998 15.0884 35.8998H19.2499L21.8147 22.4433H22.9015V21.9686H18.4278V22.4433H19.5172C19.0022 25.3491 18.1724 29.4291 17.895 31.0824C17.3002 34.6259 17.1441 35.4251 15.3192 35.4251C13.7522 35.4251 13.921 34.0396 14.8237 29.2007C15.6577 24.5576 19.3144 5.6769 19.6716 3.59955C20.0287 1.5222 20.5548 0.474944 22.1269 0.474944C23.8042 0.474944 23.4351 1.91535 22.8124 5.16615C22.2949 7.8667 21.8376 10.4016 21.5593 11.6634H23.8491C24.3353 9.18093 25.0225 5.47689 25.5332 2.7669C25.8531 1.07068 24.4727 0.000244141 22.417 0.000244141L22.4162 0.000244141Z" fill="#332B2B"/>
<path d="M10.4995 28.4837C10.1022 30.5608 9.54948 33.0199 8.83468 34.0258C7.99724 35.2051 6.79946 35.4197 5.74867 35.4197H4.18131L10.738 0.474643H12.7892V0H6.56091V0.474643H8.46762L1.93358 35.4206H0V35.8995H9.60492L11.3512 26.3749H10.8867L10.5003 28.4837H10.4995Z" fill="#332B2B"/>
</svg>
