<svg width="168" height="48" viewBox="0 0 168 48" fill="none" xmlns="http://www.w3.org/2000/svg">
<path d="M84.0596 0C91.502 0.000168258 96.5441 5.62341 96.8086 11.7939C97.073 17.9645 91.4384 21.3747 89.8799 22.1064C90.0728 22.165 90.2764 22.2299 90.4893 22.3008C90.5464 22.3198 90.6037 22.3404 90.6621 22.3604C90.8346 22.4193 91.0121 22.483 91.1943 22.5508C91.2834 22.5839 91.3738 22.617 91.4648 22.6523C91.5285 22.677 91.5927 22.7017 91.6572 22.7275C91.8271 22.7955 91.9997 22.8681 92.1748 22.9443C92.6642 23.1573 93.1717 23.4025 93.6816 23.6875C93.7022 23.699 93.7226 23.711 93.7432 23.7227C93.8551 23.7859 93.9671 23.8509 94.0791 23.918C94.1051 23.9335 94.1312 23.9491 94.1572 23.9648C94.3897 24.106 94.6213 24.2563 94.8516 24.415C94.8954 24.4452 94.9397 24.475 94.9834 24.5059C95.1075 24.5935 95.2308 24.6842 95.3535 24.7773C95.3733 24.7923 95.3924 24.8081 95.4121 24.8232C95.517 24.9038 95.6211 24.9866 95.7246 25.0713C95.7595 25.0998 95.7944 25.1282 95.8291 25.1572C95.9062 25.2217 95.9825 25.2876 96.0586 25.3545C96.0633 25.3586 96.0676 25.3631 96.0723 25.3672C96.1247 25.4134 96.1776 25.4595 96.2295 25.5068C96.2943 25.5659 96.358 25.6266 96.4219 25.6875C96.4729 25.7361 96.5248 25.7842 96.5752 25.834C96.5786 25.8374 96.5825 25.8403 96.5859 25.8438L96.8916 26.1582C96.8979 26.1649 96.9039 26.172 96.9102 26.1787C96.9457 26.2169 96.9804 26.2561 97.0156 26.2949C97.0733 26.3586 97.1319 26.4219 97.1885 26.4873L97.1895 26.4883C97.2121 26.5145 97.2334 26.5419 97.2559 26.5684C97.2898 26.6083 97.323 26.6489 97.3564 26.6895C97.4358 26.7856 97.514 26.8835 97.5908 26.9834C97.6216 27.0235 97.6522 27.0638 97.6826 27.1045C97.763 27.212 97.8416 27.3218 97.9189 27.4336C97.9449 27.4712 97.9724 27.5078 97.998 27.5459C98.016 27.5726 98.033 27.6 98.0508 27.627C98.1108 27.718 98.1697 27.8105 98.2275 27.9043C98.2466 27.9352 98.2663 27.9658 98.2852 27.9971C98.352 28.108 98.4168 28.2211 98.4805 28.3359C98.4995 28.3703 98.5184 28.4048 98.5371 28.4395C98.5974 28.551 98.6568 28.664 98.7139 28.7793C98.7297 28.8112 98.7442 28.8438 98.7598 28.876C98.814 28.9882 98.8669 29.102 98.918 29.2178C98.9304 29.246 98.9428 29.2743 98.9551 29.3027C99.0105 29.4311 99.0639 29.5616 99.1152 29.6943C99.1249 29.7193 99.1341 29.7444 99.1436 29.7695C99.6448 31.0934 99.9443 32.6349 99.9443 34.4326C99.9443 43.9635 92.8349 48 80.083 48L66.6162 47.9961L51.4258 47.9961L51.418 45.8037C52.989 45.8036 55.0178 44.9991 54.2354 42.7871L51.9287 35.0625C51.4909 34.8724 49.1023 34.8076 43.6133 34.8076C38.1232 34.8076 36.6989 34.8723 36.2305 35.0625L34.0498 42.3008C33.5246 44.0458 34.8306 45.8037 36.6533 45.8037V47.9648H25.9648V45.8037C27.8212 45.8037 29.1451 44.6014 29.7051 42.832L43.1875 0.0625L49.7598 0.0625L62.6846 42.7324C63.4765 44.7777 64.6985 45.8008 66.4365 45.8008C68.3739 45.8007 69.7412 44.5235 69.7412 41.9971V5.97168C69.7412 3.14951 67.7731 2.12402 65.8252 2.12402V0.0947266L84.0596 0ZM116.339 2.12402C114.391 2.12402 112.452 3.14951 112.452 5.97168V45.7988C118.502 45.7153 123.271 43.2844 126.429 40.5098H131.394V47.998H100.475V45.8359C102.423 45.8359 104.399 44.6836 104.399 42.0527V5.96973C104.399 3.32414 102.569 2.25768 100.822 2.13477L100.475 2.12305V0.0947266L116.339 0.0947266V2.12402ZM167.532 0.0947266V7.3877L162.57 7.3877V7.38672C159.301 4.46149 153.214 1.17077 144.936 2.36133V20.3486C145.391 20.5503 146.361 20.6084 147.272 20.6084C148.307 20.6084 153.82 20.5732 153.82 20.5732C155.507 20.5732 157.043 18.8763 157.472 17.252H159.894V27.1924H157.472C157.011 25.6376 155.505 23.8624 153.82 23.8623C153.82 23.8623 148.346 23.8739 147.272 23.8809C146.199 23.8878 145.289 23.8739 144.936 24.1289V45.5811C152.761 46.6766 158.581 43.9482 162.572 40.5H167.532V47.998H132.99V45.8359C134.939 45.8487 136.887 44.8277 136.88 42.0059V5.97168C136.88 3.14951 134.938 2.12402 132.99 2.12402V0.0947266L167.532 0.0947266ZM34.5977 7.35547H29.585C27.2519 5.16981 20.2196 0.946987 11.9551 2.37891L11.9551 20.3486C12.4177 20.5585 13.124 20.6035 13.9785 20.6035L20.8408 20.5879C22.5497 20.5876 24.0622 18.8899 24.4912 17.2656H26.9141V27.2061H24.4912C24.0309 25.6513 22.5254 23.8763 20.8408 23.876L13.9785 23.8721C13.0035 23.8721 12.3725 23.9704 11.9551 24.127V41.9961C11.9551 44.8577 13.9408 45.835 15.8701 45.835V47.9961H0L0 45.835C1.86908 45.835 3.89746 44.8574 3.89746 42.0039L3.89746 5.97266C3.89746 3.14817 1.94792 2.11328 0 2.11328L0 0.09375L34.5498 0.09375L34.5977 7.35547ZM81.7041 23.5303C78.9911 23.5303 77.8604 23.7852 77.8604 23.7852V45.4854C80.1811 45.7474 82.1967 45.749 82.2314 45.749C86.6907 45.749 92.6809 42.99 92.2266 33.9707C91.6828 26.2034 86.2098 23.5303 81.7041 23.5303ZM37.3711 31.2822C37.6866 31.4723 38.4718 31.5449 43.6582 31.5449C48.8457 31.5449 50.3868 31.5025 50.8008 31.2822L44.332 8.37402L37.3711 31.2822ZM94.8516 24.415C94.8954 24.4452 94.9397 24.475 94.9834 24.5059C94.9397 24.475 94.8954 24.4452 94.8516 24.415ZM81.5195 2.0293C78.4395 2.02932 77.8982 2.27965 77.8887 2.28418V20.4707C77.894 20.4783 78.0923 20.7256 81.5146 20.7256C85.4799 20.7253 89.8824 17.552 89.5312 11.958C89.1034 5.13217 85.1371 2.0293 81.5195 2.0293Z" fill="#F2EFE5"/>
</svg>
