<svg width="48" height="168" viewBox="0 0 48 168" fill="none" xmlns="http://www.w3.org/2000/svg">
<path d="M0 83.4727C0.000168258 76.0303 5.62341 70.9881 11.7939 70.7236C17.9645 70.4593 21.3747 76.0939 22.1064 77.6523C22.165 77.4595 22.2299 77.2558 22.3008 77.043C22.3198 76.9859 22.3404 76.9285 22.3604 76.8701C22.4193 76.6977 22.483 76.5201 22.5508 76.3379C22.5839 76.2489 22.617 76.1584 22.6523 76.0674C22.677 76.0038 22.7017 75.9395 22.7275 75.875C22.7955 75.7051 22.8681 75.5325 22.9443 75.3574C23.1573 74.868 23.4025 74.3605 23.6875 73.8506C23.699 73.83 23.711 73.8097 23.7227 73.7891C23.7859 73.6771 23.8509 73.5651 23.918 73.4531C23.9335 73.4271 23.9491 73.401 23.9648 73.375C24.106 73.1425 24.2563 72.911 24.415 72.6807C24.4452 72.6368 24.475 72.5925 24.5059 72.5488C24.5935 72.4247 24.6842 72.3014 24.7773 72.1787C24.7923 72.159 24.8081 72.1398 24.8232 72.1201C24.9038 72.0152 24.9866 71.9111 25.0713 71.8076C25.0998 71.7728 25.1282 71.7378 25.1572 71.7031C25.2217 71.626 25.2876 71.5497 25.3545 71.4736C25.3586 71.469 25.3631 71.4646 25.3672 71.46C25.4134 71.4075 25.4595 71.3547 25.5068 71.3027C25.5659 71.238 25.6266 71.1743 25.6875 71.1104C25.7361 71.0593 25.7842 71.0075 25.834 70.957C25.8374 70.9536 25.8403 70.9497 25.8438 70.9463L26.1582 70.6406C26.1649 70.6343 26.172 70.6284 26.1787 70.6221C26.2169 70.5865 26.2561 70.5518 26.2949 70.5166C26.3586 70.4589 26.4219 70.4004 26.4873 70.3438L26.4883 70.3428C26.5145 70.3201 26.5419 70.2988 26.5684 70.2764C26.6083 70.2425 26.6489 70.2093 26.6895 70.1758C26.7856 70.0964 26.8835 70.0183 26.9834 69.9414C27.0235 69.9106 27.0638 69.88 27.1045 69.8496C27.212 69.7692 27.3218 69.6906 27.4336 69.6133C27.4712 69.5873 27.5078 69.5598 27.5459 69.5342C27.5726 69.5162 27.6 69.4992 27.627 69.4814C27.718 69.4214 27.8105 69.3626 27.9043 69.3047C27.9352 69.2856 27.9658 69.2659 27.9971 69.2471C28.108 69.1802 28.2211 69.1154 28.3359 69.0518C28.3703 69.0327 28.4048 69.0139 28.4395 68.9951C28.551 68.9348 28.664 68.8755 28.7793 68.8184C28.8112 68.8026 28.8438 68.788 28.876 68.7725C28.9882 68.7182 29.102 68.6654 29.2178 68.6143C29.246 68.6018 29.2743 68.5894 29.3027 68.5771C29.4311 68.5218 29.5616 68.4683 29.6943 68.417C29.7193 68.4073 29.7444 68.3982 29.7695 68.3887C31.0934 67.8874 32.6349 67.5879 34.4326 67.5879C43.9635 67.5879 48 74.6973 48 87.4492L47.9961 100.916L47.9961 116.106L45.8037 116.114C45.8036 114.543 44.9991 112.514 42.7871 113.297L35.0625 115.604C34.8724 116.041 34.8076 118.43 34.8076 123.919C34.8076 129.409 34.8723 130.833 35.0625 131.302L42.3008 133.482C44.0458 134.008 45.8037 132.702 45.8037 130.879H47.9648V141.567H45.8037C45.8037 139.711 44.6014 138.387 42.832 137.827L0.0625 124.345L0.0625 117.772L42.7324 104.848C44.7777 104.056 45.8008 102.834 45.8008 101.096C45.8007 99.1583 44.5235 97.791 41.9971 97.791H5.97168C3.14951 97.791 2.12402 99.7591 2.12402 101.707H0.0947266L0 83.4727ZM2.12402 51.1934C2.12402 53.1413 3.14951 55.0801 5.97168 55.0801H45.7988C45.7153 49.03 43.2844 44.2607 40.5098 41.1035V36.1387H47.998V67.0576H45.8359C45.8359 65.1097 44.6836 63.1328 42.0527 63.1328H5.96973C3.32414 63.133 2.25768 64.9631 2.13477 66.71L2.12305 67.0576H0.0947266L0.0947266 51.1934H2.12402ZM0.0947266 0H7.3877L7.3877 4.96191H7.38672C4.46149 8.23167 1.17077 14.3185 2.36133 22.5967H20.3486C20.5503 22.1409 20.6084 21.1713 20.6084 20.2598C20.6084 19.2248 20.5732 13.7119 20.5732 13.7119C20.5732 12.0254 18.8763 10.4896 17.252 10.0605V7.63867H27.1924V10.0605C25.6376 10.5209 23.8624 12.0272 23.8623 13.7119C23.8623 13.7119 23.8739 19.1861 23.8809 20.2598C23.8878 21.3332 23.8739 22.243 24.1289 22.5967H45.5811C46.6766 14.7716 43.9482 8.95082 40.5 4.95996V0H47.998V34.542H45.8359C45.8487 32.593 44.8277 30.6456 42.0059 30.6523H5.97168C3.14951 30.6523 2.12402 32.5941 2.12402 34.542H0.0947266L0.0947266 0ZM7.35547 132.935V137.947C5.16981 140.28 0.946987 147.313 2.37891 155.577H20.3486C20.5585 155.115 20.6035 154.408 20.6035 153.554L20.5879 146.691C20.5876 144.983 18.8899 143.47 17.2656 143.041V140.618H27.2061V143.041C25.6513 143.501 23.8763 145.007 23.876 146.691L23.8721 153.554C23.8721 154.529 23.9704 155.16 24.127 155.577H41.9961C44.8577 155.577 45.835 153.591 45.835 151.662H47.9961V167.532H45.835C45.835 165.663 44.8574 163.635 42.0039 163.635H5.97266C3.14817 163.635 2.11328 165.584 2.11328 167.532H0.09375L0.09375 132.982L7.35547 132.935ZM23.5303 85.8281C23.5303 88.5411 23.7852 89.6719 23.7852 89.6719H45.4854C45.7474 87.3512 45.749 85.3355 45.749 85.3008C45.749 80.8415 42.99 74.8513 33.9707 75.3057C26.2034 75.8495 23.5303 81.3224 23.5303 85.8281ZM31.2822 130.161C31.4723 129.846 31.5449 129.06 31.5449 123.874C31.5449 118.687 31.5025 117.145 31.2822 116.731L8.37402 123.2L31.2822 130.161ZM24.415 72.6807C24.4452 72.6368 24.475 72.5925 24.5059 72.5488C24.475 72.5925 24.4452 72.6368 24.415 72.6807ZM2.0293 86.0127C2.02932 89.0928 2.27965 89.634 2.28418 89.6436H20.4707C20.4783 89.6383 20.7256 89.44 20.7256 86.0176C20.7253 82.0524 17.552 77.6499 11.958 78.001C5.13217 78.4288 2.0293 82.3951 2.0293 86.0127Z" fill="#F2EFE5"/>
</svg>
